<?xml version="1.0" encoding="UTF-8"?>
<svg id="Layer_1" data-name="Layer 1" xmlns="http://www.w3.org/2000/svg" viewBox="0 0 1186.31 194.06">
  <defs>
    <style>
      .cls-1 {
        fill: #b5b634;
      }

      .cls-2 {
        fill: #e95428;
      }

      .cls-3 {
        fill: #eae96f;
      }

      .cls-4 {
        fill: #7fb77e;
      }

      .cls-5 {
        fill: #ec642f;
      }
    </style>
  </defs>
  <g>
    <path class="cls-5" d="m64.43,62.17v128.83c-17.24,0-32.89-6.77-44.46-17.79-.73-.71-1.46-1.45-2.18-2.18C6.77,159.47,0,143.83,0,126.58,0,91.01,28.83,62.17,64.43,62.17Z"/>
    <path class="cls-2" d="m128.83,126.58c0,35.59-28.83,64.42-64.41,64.42V62.17c3.61,0,7.13.31,10.59.88,2.24.37,4.43.86,6.59,1.46,27.23,7.52,47.22,32.44,47.22,62.07Z"/>
    <path class="cls-1" d="m142.79,60.96c.58,1.14-9.83,5.2-11.09,5.49-3.96.93-8.04.75-11.96-.31-9.05-2.47-17.04-9.31-24.69-14.7-5.04,3.74-9.58,8.12-13.43,13.08-2.16-.6-4.35-1.09-6.59-1.46,4.16-5.8,9.18-10.96,14.8-15.35-7.6-7.85-17.17-16.32-18.99-27.53-1.12-6.9.44-14.21,4.27-20.06.71-1.06,9.42,5.94,10.3,6.89,2.78,2.99,4.66,6.61,5.69,10.53,2.44,9.37.28,20.04-.54,29.61,10.59-8.07,23.28-13.42,36.57-14.98l.71,6.11c-10.36,1.2-20.32,4.92-29.05,10.56,9.41-2.49,19.62-5,28.74-1.58,6.55,2.47,12.12,7.46,15.27,13.71Z"/>
    <path class="cls-3" d="m37.63,109.36c0,2.99-2.43,5.42-5.42,5.42s-5.42-2.43-5.42-5.42,2.43-5.42,5.42-5.42,5.42,2.43,5.42,5.42Z"/>
    <path class="cls-3" d="m56.87,132c0,2.99-2.43,5.42-5.42,5.42s-5.42-2.43-5.42-5.42,2.43-5.42,5.42-5.42,5.42,2.43,5.42,5.42Z"/>
    <path class="cls-3" d="m32.21,137.42c0,2.99-2.43,5.42-5.42,5.42s-5.42-2.43-5.42-5.42,2.43-5.42,5.42-5.42,5.42,2.43,5.42,5.42Z"/>
    <path class="cls-3" d="m56.87,83.37c0,2.99-2.43,5.42-5.42,5.42s-5.42-2.43-5.42-5.42,2.43-5.42,5.42-5.42,5.42,2.43,5.42,5.42Z"/>
    <path class="cls-3" d="m112.06,120.2c0,2.99-2.43,5.42-5.42,5.42s-5.42-2.43-5.42-5.42,2.43-5.42,5.42-5.42,5.42,2.43,5.42,5.42Z"/>
    <path class="cls-3" d="m95.22,88.79c0,2.99-2.43,5.42-5.42,5.42s-5.42-2.43-5.42-5.42,2.43-5.42,5.42-5.42,5.42,2.43,5.42,5.42Z"/>
    <path class="cls-3" d="m89.8,159.17c0,2.99-2.43,5.42-5.42,5.42s-5.42-2.43-5.42-5.42,2.43-5.42,5.42-5.42,5.42,2.43,5.42,5.42Z"/>
  </g>
  <g>
    <path class="cls-4" d="m293.32,60.58c1.64,0,3.22.3,4.76.91,1.53.61,2.9,1.45,4.11,2.52,1.21,1.08,2.17,2.32,2.88,3.72s1.07,2.92,1.07,4.56c0,2.37-.71,4.24-2.14,5.6s-3.49,2.04-6.21,2.04c-1.12,0-2.14-.24-3.04-.71s-1.74-.98-2.49-1.52c-.75-.54-1.47-1.05-2.14-1.52-.67-.47-1.37-.71-2.1-.71-2.33,0-5.04.32-8.12.97-3.08.65-6.61,1.81-10.58,3.49-3.75,1.6-7.35,3.5-10.8,5.73-3.45,2.22-6.82,4.69-10.09,7.41-3.19,2.63-6.27,5.61-9.22,8.93-2.95,3.32-5.55,6.64-7.8,9.96-.86,1.29-1.67,2.78-2.43,4.46-.75,1.68-1.41,3.48-1.97,5.4-.56,1.92-1,3.9-1.33,5.95s-.49,4.09-.49,6.11.57,3.61,1.71,4.88c1.14,1.27,2.53,2.28,4.17,3.01,1.64.73,3.36,1.24,5.18,1.52s3.39.42,4.72.42c2.5,0,5.15-.3,7.96-.91,2.8-.6,5.62-1.43,8.44-2.49,2.82-1.06,5.57-2.3,8.25-3.72,2.67-1.42,5.11-2.93,7.31-4.53.56-.43,1.36-1.13,2.39-2.1s2.05-2.03,3.04-3.17c.99-1.14,1.87-2.26,2.62-3.36.75-1.1,1.13-1.99,1.13-2.69,0-.39-.05-.84-.16-1.36-.11-.52-.22-1.04-.32-1.55-.11-.52-.22-1.02-.32-1.52-.11-.5-.16-.9-.16-1.2,0-2.8,2.69-4.21,8.09-4.21,1.38,0,2.73.32,4.04.97,1.32.65,2.49,1.42,3.53,2.33s1.89,1.84,2.56,2.81c.67.97,1.02,1.78,1.07,2.43,0,.13-.18.61-.55,1.46-.37.84-.84,1.87-1.42,3.07s-1.22,2.51-1.91,3.91c-.69,1.4-1.34,2.71-1.94,3.91-.6,1.21-1.13,2.25-1.59,3.14s-.72,1.43-.81,1.65c-.65,1.55-1.34,3.43-2.07,5.63-.73,2.2-1.41,4.41-2.04,6.63-.63,2.22-1.13,4.31-1.52,6.28s-.58,3.46-.58,4.5c0,.39.1.74.29,1.07s.4.63.61.91c.22.28.42.55.61.81s.29.52.29.78c0,1.25-.24,2.42-.71,3.49-.48,1.08-1.13,2.03-1.97,2.85s-1.83,1.46-2.98,1.91c-1.14.45-2.38.68-3.72.68-1.55,0-2.84-.24-3.85-.71-1.01-.47-1.83-1.14-2.46-2.01-.63-.86-1.06-1.91-1.29-3.14-.24-1.23-.36-2.6-.36-4.11,0-.86.24-2.07.71-3.62.47-1.55,1.04-3.2,1.68-4.95s1.32-3.47,2.01-5.18c.69-1.7,1.25-3.12,1.68-4.24-2.89,1.94-5.67,3.75-8.35,5.43-2.68,1.68-5.47,3.15-8.38,4.4-2.91,1.25-6.06,2.23-9.45,2.94-3.39.71-7.24,1.07-11.55,1.07s-8.38-.58-12.2-1.75c-3.82-1.16-7.15-2.77-10-4.82-2.85-2.05-5.1-4.45-6.76-7.21-1.66-2.76-2.49-5.72-2.49-8.86,0-6.21,1.42-12.64,4.27-19.28,2.85-6.64,7.16-13.33,12.94-20.06,2.42-2.8,4.89-5.47,7.44-7.99,2.54-2.52,4.98-4.78,7.31-6.76,1.64-1.38,3.47-2.77,5.5-4.17,2.03-1.4,4.16-2.75,6.41-4.04,2.24-1.29,4.55-2.5,6.92-3.62,2.37-1.12,4.74-2.14,7.12-3.04,2.54-.95,4.96-1.79,7.25-2.52,2.29-.73,4.54-1.33,6.76-1.81,2.22-.47,4.47-.84,6.76-1.1,2.29-.26,4.7-.39,7.25-.39Z"/>
    <path class="cls-4" d="m381.76,107.88c0,.39-.09.91-.26,1.55-.17.65-.43,1.29-.78,1.94-.35.65-.79,1.21-1.33,1.68-.54.47-1.2.73-1.97.78-.17,0-.54-.01-1.1-.03-.56-.02-1.16-.05-1.81-.1s-1.25-.08-1.81-.1c-.56-.02-.97-.03-1.23-.03-7.2.39-13.44,2.98-18.7,7.76-1.21,1.08-2.45,2.35-3.72,3.82-1.27,1.47-2.52,3.07-3.75,4.82s-2.4,3.61-3.53,5.6c-1.12,1.98-2.14,4.05-3.04,6.21-.73,1.77-1.45,3.59-2.14,5.47-.69,1.88-1.29,3.85-1.81,5.92-.3,1.12-.53,2.1-.68,2.94-.15.84-.4,1.82-.74,2.94-.22.69-.58,1.28-1.1,1.78s-1.12.91-1.81,1.23c-.69.32-1.41.57-2.17.74-.75.17-1.5.28-2.23.32-2.76,0-4.66-1.25-5.69-3.75s-1.55-6.23-1.55-11.19c0-1.12,0-2.18.03-3.17.02-.99.06-1.99.13-3.01s.14-2.07.23-3.17c.09-1.1.19-2.34.32-3.72.17-2.03.41-4.43.71-7.21.3-2.78.62-5.61.97-8.48.35-2.87.72-5.64,1.13-8.31.41-2.67.83-4.94,1.26-6.79.52-2.29,1.39-4.08,2.62-5.37s3.03-1.94,5.4-1.94c.69,0,1.39.18,2.1.55s1.35.81,1.91,1.33c.56.52,1.04,1.08,1.42,1.68s.6,1.14.65,1.62l.06,1.16c0,1.21-.11,2.63-.32,4.27-.22,1.64-.51,3.38-.87,5.21-.37,1.83-.75,3.69-1.16,5.56-.41,1.88-.82,3.67-1.23,5.37-.41,1.7-.78,3.28-1.1,4.72s-.57,2.64-.74,3.59c1.51-3.19,3.13-6.27,4.85-9.22,1.72-2.95,3.58-5.69,5.56-8.22,1.98-2.52,4.12-4.78,6.41-6.76,2.29-1.98,4.74-3.58,7.38-4.79,2.07-.95,3.97-1.67,5.69-2.17,1.72-.5,3.28-.74,4.66-.74,1.64,0,3.33.17,5.08.52s3.34.85,4.79,1.52c1.44.67,2.64,1.48,3.59,2.43.95.95,1.42,2.03,1.42,3.23Z"/>
    <path class="cls-4" d="m476.74,105.68c0,.78-.16,1.6-.49,2.46s-.77,1.69-1.33,2.49c-.56.8-1.2,1.54-1.91,2.23s-1.43,1.27-2.17,1.75c-1.55,1.04-3.81,1.94-6.76,2.72-2.95.78-6.52,1.16-10.71,1.16-1.21,0-2.49-.09-3.85-.26s-2.74-.41-4.14-.71c-1.4-.3-2.78-.68-4.14-1.13s-2.66-.96-3.91-1.52c.26.39.47.92.65,1.59.17.67.29,1.37.36,2.1s.11,1.43.13,2.1c.02.67.03,1.2.03,1.59,0,2.76-.49,5.51-1.46,8.25s-2.25,5.36-3.85,7.86c-1.6,2.5-3.41,4.82-5.43,6.96-2.03,2.14-4.1,3.98-6.21,5.53-1.68,1.25-3.55,2.33-5.6,3.23-2.05.91-4.21,1.66-6.47,2.26s-4.59,1.06-6.99,1.36-4.82.45-7.28.45c-2.03,0-3.97-.5-5.82-1.49-1.85-.99-3.48-2.28-4.88-3.85-1.4-1.57-2.52-3.35-3.36-5.34s-1.26-3.95-1.26-5.89c0-3.45.46-6.77,1.39-9.96.93-3.19,2.17-6.28,3.72-9.25s3.36-5.9,5.43-8.77,4.25-5.7,6.53-8.51c1.34-1.64,2.87-3.23,4.59-4.79,1.72-1.55,3.55-2.94,5.47-4.17,1.92-1.23,3.86-2.21,5.82-2.94,1.96-.73,3.85-1.1,5.66-1.1,1.51,0,2.81.17,3.91.52s2.11.83,3.04,1.46c.93.63,1.82,1.39,2.69,2.3.86.91,1.77,1.92,2.72,3.04l1.36,1.49c.35.35,1.28.86,2.81,1.55,1.53.69,3.35,1.37,5.47,2.04,2.11.67,4.33,1.26,6.66,1.78s4.44.78,6.34.78,3.77-.02,5.5-.06c1.72-.04,3.46-.2,5.21-.49s3.58-.71,5.5-1.29c1.92-.58,4.04-1.39,6.37-2.43.22.39.38.88.49,1.49.11.6.16,1.08.16,1.42Zm-50.21,14.56c0-1.08-.05-2.2-.16-3.36-.11-1.16-.33-2.25-.68-3.27-.35-1.01-.82-1.9-1.42-2.65-.6-.75-1.4-1.26-2.39-1.52-1.51-.39-2.74-.81-3.69-1.26-.95-.45-1.7-.87-2.26-1.26-.56-.39-.95-.71-1.16-.97-.22-.26-.37-.39-.45-.39-.35,0-.83.29-1.46.87-.63.58-1.32,1.33-2.07,2.23-.75.91-1.53,1.88-2.33,2.91-.8,1.04-1.56,2.01-2.3,2.91-.91,1.12-1.76,2.21-2.56,3.27-.8,1.06-1.58,2.16-2.33,3.3-.75,1.14-1.5,2.34-2.23,3.59-.73,1.25-1.49,2.63-2.26,4.14-.69,1.38-1.21,3.07-1.55,5.08-.35,2.01-.52,3.89-.52,5.66,0,.73.09,1.48.26,2.23.17.75.43,1.43.78,2.04.35.6.8,1.1,1.36,1.49.56.39,1.25.58,2.07.58,1.98,0,3.64-.1,4.98-.29,1.34-.19,2.59-.54,3.75-1.04s2.34-1.16,3.53-2.01c1.19-.84,2.62-1.89,4.3-3.14.78-.6,1.55-1.3,2.33-2.1s1.55-1.66,2.33-2.59,1.53-1.9,2.26-2.91c.73-1.01,1.4-1.99,2.01-2.94.35-.52.64-1.2.87-2.04.24-.84.43-1.69.58-2.56.15-.86.26-1.66.32-2.39s.1-1.25.1-1.55v-.06Z"/>
    <path class="cls-4" d="m530.06,132.34c0,.39-.12.87-.36,1.46-.24.58-.5,1.15-.78,1.71-.28.56-.56,1.06-.84,1.49-.28.43-.49.69-.61.78-3.15,2.33-6.67,4.76-10.58,7.28-3.9,2.52-8.03,4.85-12.39,6.99-4.36,2.14-8.87,3.89-13.55,5.27-4.68,1.38-9.37,2.07-14.07,2.07-.65,0-1.45-.04-2.39-.13-.95-.09-2.02-.27-3.2-.55-1.19-.28-2.45-.7-3.78-1.26-1.34-.56-2.7-1.32-4.08-2.26-.52-.35-1.13-.92-1.84-1.71s-1.39-1.69-2.04-2.69-1.21-2.04-1.68-3.14c-.48-1.1-.71-2.15-.71-3.14,0-2.59.11-5.08.32-7.47.22-2.39.6-4.82,1.16-7.28.22-.95.58-2.12,1.1-3.53s1.17-2.94,1.97-4.63c.8-1.68,1.74-3.45,2.81-5.31,1.08-1.85,2.31-3.7,3.69-5.53,1.38-1.83,2.89-3.61,4.53-5.34,1.64-1.73,3.41-3.3,5.31-4.72,2.98-2.2,5.87-3.83,8.67-4.88,2.8-1.06,5.37-1.59,7.7-1.59,1.16,0,2.42.49,3.75,1.46,1.34.97,2.59,2.2,3.75,3.69s2.12,3.13,2.88,4.92c.75,1.79,1.13,3.5,1.13,5.14,0,.95-.36,2.09-1.07,3.43s-1.62,2.61-2.72,3.82-2.33,2.23-3.69,3.07-2.71,1.26-4.04,1.26c-.52,0-1.03-.04-1.52-.13-.5-.09-.95-.25-1.36-.49-.41-.24-.74-.57-1-1s-.39-.99-.39-1.68c0-.73.16-1.51.49-2.33s.69-1.63,1.1-2.43c.41-.8.78-1.56,1.1-2.3s.49-1.42.49-2.07c0-.6-.12-1.06-.36-1.36-.24-.3-.51-.45-.81-.45-.69,0-1.38.1-2.07.29-.69.19-1.45.55-2.26,1.07-.82.52-1.75,1.24-2.78,2.17s-2.26,2.15-3.69,3.66c-1.25,1.29-2.46,2.84-3.62,4.63s-2.2,3.77-3.11,5.95-1.64,4.48-2.2,6.89c-.56,2.42-.84,4.87-.84,7.38,0,1.25.22,2.38.65,3.4.43,1.01,1,1.88,1.71,2.59s1.51,1.25,2.39,1.62c.88.37,1.78.55,2.69.55,3.71,0,7.66-.53,11.84-1.59,4.18-1.06,8.28-2.39,12.29-4.01,4.01-1.62,7.79-3.41,11.32-5.37,3.54-1.96,6.49-3.87,8.86-5.73,0-.09.16-.23.49-.42s.69-.39,1.1-.58c.41-.19.8-.36,1.16-.49.37-.13.61-.19.74-.19,1.21,0,2.05.32,2.52.97.47.65.71,1.57.71,2.78Z"/>
    <path class="cls-4" d="m605.82,110.92c0,.35-.13.88-.39,1.62s-.69,1.6-1.29,2.59c-1.68,2.67-3.78,5.59-6.31,8.73s-5.31,6.29-8.35,9.41-6.3,6.15-9.77,9.06c-3.47,2.91-6.99,5.49-10.55,7.73s-7.11,4.04-10.64,5.4c-3.54,1.36-6.9,2.04-10.09,2.04-4.05,0-7.59-.56-10.61-1.68-3.02-1.12-5.52-2.75-7.51-4.88-1.98-2.14-3.47-4.74-4.46-7.83-.99-3.08-1.49-6.59-1.49-10.51,0-2.98.23-6.12.68-9.45s1.28-6.7,2.49-10.13c1.21-3.43,2.84-6.88,4.88-10.35,2.05-3.47,4.67-6.83,7.86-10.06,2.46-2.5,5.11-4.4,7.96-5.69,2.85-1.29,5.56-1.94,8.15-1.94.47,0,1.08.1,1.81.29.73.19,1.47.46,2.2.81.73.35,1.44.75,2.14,1.23.69.47,1.25.99,1.68,1.55,1.38,1.77,2.42,3.44,3.11,5.01.69,1.57,1.04,3.35,1.04,5.34,0,3.11-.43,5.91-1.29,8.41-.86,2.5-2.04,4.84-3.53,7.02s-3.25,4.28-5.27,6.31c-2.03,2.03-4.21,4.14-6.53,6.34-1.42,1.34-3.19,2.79-5.31,4.37-2.11,1.57-4.38,3.29-6.79,5.14.35,1.34.78,2.49,1.29,3.46s1.16,1.78,1.94,2.43,1.71,1.13,2.81,1.46,2.4.49,3.91.49c2.03,0,4.19-.35,6.5-1.04,2.31-.69,4.63-1.57,6.96-2.65,2.03-.95,4.03-2.15,6.02-3.59,1.98-1.44,3.99-2.94,6.02-4.5,1.25-.95,2.86-2.32,4.82-4.11,1.96-1.79,3.96-3.66,5.98-5.6,1.38-1.29,2.76-2.56,4.14-3.78,1.38-1.23,2.85-2.6,4.4-4.11l3.43-3.36c2.5-2.03,4.53-3.04,6.08-3.04.82,0,1.34.24,1.55.71.22.47.32.93.32,1.36Zm-50.21-6.99c0-1.9-.29-3.23-.87-4.01s-1.24-1.16-1.97-1.16c-.65,0-1.4.39-2.26,1.16-.86.78-1.76,1.82-2.69,3.14-.93,1.32-1.85,2.85-2.78,4.59-.93,1.75-1.79,3.59-2.59,5.53-.8,1.94-1.47,3.94-2.01,5.98-.54,2.05-.92,4.02-1.13,5.92,1.25-1.04,2.38-1.97,3.4-2.81,1.01-.84,1.97-1.74,2.88-2.69.91-.91,1.93-2.02,3.07-3.33,1.14-1.32,2.23-2.69,3.27-4.11s1.91-2.85,2.62-4.27,1.07-2.74,1.07-3.95Z"/>
    <path class="cls-4" d="m656.19,109.3c-.5.99-1.12,1.78-1.88,2.36-.75.58-1.61.99-2.56,1.23-.95.24-1.9.36-2.85.36-.78,0-1.55-.11-2.33-.32s-1.58-.32-2.39-.32c-1.38,0-3.07.42-5.08,1.26s-4.07,1.93-6.18,3.27c-2.11,1.34-4.18,2.83-6.21,4.46-2.03,1.64-3.78,3.26-5.24,4.85-.82.91-1.77,1.99-2.85,3.27-1.08,1.27-2.1,2.6-3.07,3.98s-1.79,2.76-2.46,4.14c-.67,1.38-1,2.63-1,3.75,0,1.38.14,3,.42,4.85.28,1.85.42,3.82.42,5.89,0,.73-.01,1.41-.03,2.04-.02.63-.12,1.24-.29,1.84-.09.52-.36,1.09-.81,1.71s-1.03,1.23-1.71,1.81c-.69.58-1.45,1.07-2.26,1.46-.82.39-1.66.58-2.52.58-1.42,0-2.63-.52-3.62-1.55-.99-1.04-1.78-2.48-2.36-4.33s-1-4.03-1.26-6.53-.39-5.2-.39-8.09c0-.17,0-.75.03-1.75.02-.99.04-2.07.06-3.23.02-1.16.05-2.29.1-3.36.04-1.08.06-1.77.06-2.07,0-.17.03-.73.1-1.68s.15-2.1.26-3.46c.11-1.36.22-2.83.32-4.4.11-1.57.22-3.07.32-4.5.11-1.42.2-2.69.29-3.78.09-1.1.15-1.82.19-2.17.04-.13.1-.57.16-1.33s.15-1.63.26-2.62c.11-.99.25-2.01.42-3.04.17-1.04.35-1.9.52-2.59.17-.6.53-1.32,1.07-2.14.54-.82,1.23-1.61,2.07-2.36s1.78-1.4,2.81-1.94,2.14-.81,3.3-.81c1.38,0,2.49.22,3.33.65s1.51.96,2.01,1.59c.49.63.83,1.29,1,2.01.17.71.26,1.35.26,1.91,0,.35-.13,1.11-.39,2.3s-.6,2.49-1.04,3.91c-.52,1.9-.97,4.11-1.36,6.63s-.69,4.95-.91,7.28c2.37-2.67,4.92-5.38,7.63-8.12s5.54-5.22,8.48-7.44c2.93-2.22,5.93-4.03,8.99-5.43,3.06-1.4,6.12-2.1,9.19-2.1,1.51,0,2.87.25,4.08.74,1.21.5,2.23,1.14,3.07,1.94s1.49,1.68,1.94,2.65.68,1.95.68,2.94v.13c-.04,1.47-.31,2.7-.81,3.69Z"/>
    <path class="cls-4" d="m730.63,105.23c-.04.73-.3,1.89-.78,3.46-.48,1.57-1.07,3.42-1.78,5.53s-1.53,4.43-2.46,6.96c-.93,2.52-1.85,5.12-2.78,7.8-.93,2.67-1.84,5.36-2.75,8.06s-1.7,5.25-2.39,7.67c-.04.13-.23.72-.55,1.78s-.74,2.42-1.26,4.08-1.1,3.54-1.75,5.63-1.3,4.24-1.97,6.44c-.67,2.2-1.34,4.35-2.01,6.44-.67,2.09-1.26,3.98-1.78,5.66s-.95,3.07-1.29,4.17c-.35,1.1-.54,1.71-.58,1.84-.35,1.16-.72,2.52-1.13,4.08-.41,1.55-.97,3.01-1.68,4.37s-1.65,2.51-2.81,3.46-2.7,1.42-4.59,1.42c-1.08,0-2.04-.22-2.88-.65s-1.55-.98-2.14-1.65-1.04-1.42-1.36-2.26-.49-1.67-.49-2.49c0-.95.24-2.21.71-3.78.47-1.57,1.07-3.3,1.78-5.18s1.49-3.86,2.33-5.95,1.63-4.15,2.36-6.18c.65-1.68,1.23-3.21,1.75-4.59s1.09-2.93,1.71-4.66c.62-1.73,1.26-3.45,1.91-5.18l1.84-4.92,1.46-3.88c-.99.82-2.14,1.7-3.43,2.65s-2.66,1.91-4.11,2.88c-1.45.97-2.97,1.9-4.56,2.78-1.6.88-3.18,1.67-4.76,2.36-1.58.69-3.13,1.24-4.66,1.65-1.53.41-2.99.61-4.37.61-2.98,0-5.61-.5-7.89-1.49-2.29-.99-4.21-2.25-5.76-3.78s-2.73-3.21-3.53-5.05c-.8-1.83-1.2-3.61-1.2-5.34,0-1.29.14-2.89.42-4.79.28-1.9.67-3.94,1.16-6.11.49-2.18,1.09-4.44,1.78-6.79.69-2.35,1.42-4.63,2.2-6.83s1.59-4.24,2.43-6.11,1.69-3.44,2.56-4.69c1.34-1.94,2.62-3.3,3.85-4.08s2.56-1.16,3.98-1.16c1.34,0,2.43.19,3.27.58s1.5.93,1.97,1.62c.47.69.8,1.47.97,2.33.17.86.26,1.79.26,2.78,0,.6-.25,1.47-.74,2.59-.5,1.12-1.11,2.46-1.84,4.01-.65,1.34-1.4,2.92-2.26,4.76-.86,1.83-1.66,3.82-2.39,5.95-.73,2.14-1.36,4.37-1.88,6.7s-.78,4.68-.78,7.05c0,.82.22,1.51.65,2.07.43.56.94,1,1.52,1.33s1.19.56,1.81.71c.62.15,1.13.23,1.52.23,1.55,0,3.17-.31,4.85-.94s3.35-1.4,5.01-2.33c1.66-.93,3.28-1.92,4.85-2.98,1.57-1.06,3.07-2.02,4.5-2.88,1.16-.73,2.46-1.67,3.88-2.81s2.65-2.43,3.69-3.85c.47-.65,1.04-1.8,1.71-3.46.67-1.66,1.37-3.55,2.1-5.66.73-2.11,1.46-4.28,2.17-6.5s1.33-4.24,1.84-6.05c.39-1.29.9-2.43,1.52-3.4.62-.97,1.29-1.77,2.01-2.39s1.44-1.1,2.2-1.42c.75-.32,1.46-.49,2.1-.49,1.47,0,2.64.13,3.53.39.88.26,1.56.7,2.04,1.33.47.63.79,1.47.94,2.52.15,1.06.23,2.36.23,3.91v.13Z"/>
    <path class="cls-4" d="m891.86,112.73c0,2.5-.35,4.93-1.07,7.28s-1.67,4.63-2.88,6.83-2.58,4.29-4.11,6.28-3.12,3.84-4.76,5.56c-2.29,2.42-4.69,4.53-7.21,6.34-2.52,1.81-5.15,3.54-7.86,5.18.91.99,1.92,2.21,3.04,3.66s2.29,2.98,3.49,4.59,2.39,3.26,3.53,4.92,2.17,3.22,3.07,4.69,1.63,2.78,2.17,3.95.81,2.03.81,2.59c0,.91-.37,1.74-1.1,2.49s-1.6,1.4-2.59,1.94-1.97.96-2.94,1.26-1.7.45-2.17.45c-1.51,0-2.81-.38-3.91-1.13s-1.93-1.46-2.49-2.1c-.6-1.29-1.37-2.7-2.29-4.21s-1.9-3.03-2.91-4.56-2.03-3.01-3.04-4.43-1.94-2.67-2.78-3.75-1.52-1.95-2.04-2.62-.8-1-.84-1c-.47,0-1.4.18-2.78.55s-3.09.77-5.14,1.2-4.39.83-7.02,1.2-5.43.55-8.41.55c-2.46,0-4.99-.23-7.6-.68-2.61-.45-5.15-1.16-7.63-2.14-2.48-.97-4.81-2.2-6.99-3.69-2.18-1.49-4.1-3.27-5.76-5.34-1.66-2.07-2.97-4.43-3.91-7.08-.95-2.65-1.42-5.64-1.42-8.96,0-3.88.52-7.87,1.55-11.97s2.48-8.16,4.33-12.2c1.85-4.03,4.04-7.97,6.57-11.81s5.28-7.47,8.28-10.9c3-3.43,6.17-6.59,9.51-9.48,3.34-2.89,6.73-5.38,10.16-7.47,3.43-2.09,6.87-3.72,10.32-4.88s6.77-1.75,9.96-1.75c1.21,0,2.57.36,4.08,1.07s2.95,1.65,4.33,2.81,2.58,2.5,3.59,4.01,1.63,3.04,1.84,4.59c2.98,2.33,5.86,5.05,8.64,8.15s5.24,6.37,7.38,9.8,3.84,6.89,5.11,10.38,1.91,6.77,1.91,9.83Zm-41.28-35.52c-1.16,0-2.35.09-3.56.26s-2.33.54-3.36,1.1c-2.89,1.51-5.72,3.46-8.48,5.86s-5.37,5.06-7.83,7.99-4.72,6.07-6.79,9.41c-2.07,3.34-3.85,6.72-5.34,10.13s-2.64,6.78-3.46,10.13c-.82,3.34-1.23,6.48-1.23,9.41s.53,5.54,1.59,7.57c1.06,2.03,2.39,3.66,4.01,4.88s3.4,2.11,5.34,2.65,3.79.81,5.56.81c.35,0,1.02-.02,2.04-.06,1.01-.04,2.2-.12,3.56-.23s2.8-.27,4.33-.49,3.01-.47,4.43-.78c-.78-.95-1.67-1.92-2.68-2.91s-1.98-1.95-2.91-2.88-1.72-1.79-2.36-2.59-.97-1.48-.97-2.04c0-1.6.43-2.93,1.29-4.01s1.9-1.94,3.11-2.59,2.44-1.11,3.69-1.39,2.29-.42,3.11-.42c1.25,0,2.42.36,3.49,1.07s1.98,1.93,2.72,3.66c.39.91.93,1.82,1.62,2.75s1.38,1.78,2.07,2.56,1.32,1.41,1.88,1.91.91.74,1.04.74c1.21,0,2.56-.44,4.05-1.33s3-2.06,4.53-3.53,3.02-3.15,4.46-5.05,2.73-3.84,3.85-5.82,2.03-3.96,2.72-5.92,1.04-3.72,1.04-5.27c0-2.59-.54-5.27-1.62-8.06s-2.46-5.49-4.14-8.12-3.56-5.12-5.63-7.47-4.08-4.41-6.05-6.18-3.77-3.17-5.4-4.21-2.87-1.55-3.69-1.55Z"/>
    <path class="cls-4" d="m1006.12,133.63c0,.86-.29,1.77-.87,2.72s-1.3,1.88-2.17,2.78-1.81,1.76-2.85,2.56-2.01,1.5-2.91,2.1c-4.18,2.63-8.48,4.76-12.88,6.37-4.4,1.62-8.82,2.43-13.26,2.43-2.24,0-4.31-.26-6.21-.78s-3.56-1.37-4.98-2.56-2.58-2.72-3.46-4.59-1.46-4.17-1.71-6.89c-1.38,1.73-3.02,3.58-4.92,5.56s-3.91,3.93-6.05,5.82-4.33,3.66-6.6,5.27-4.45,2.94-6.57,3.98c-.6.26-1.44.56-2.52.91s-2.21.67-3.4.97-2.34.56-3.46.78-2.01.32-2.65.32c-2.29,0-4.25-.5-5.89-1.49s-2.99-2.23-4.04-3.72-1.83-3.14-2.33-4.95-.74-3.52-.74-5.11c0-1.29.1-2.77.29-4.43s.45-3.4.78-5.21.7-3.66,1.13-5.53.88-3.72,1.36-5.53.95-3.53,1.42-5.14.93-3.22,1.36-4.82l1.29-4.79c.43-1.6.84-3.26,1.23-4.98.6-2.5,1.7-4.31,3.3-5.43s3.34-1.68,5.24-1.68c2.42,0,4.21.78,5.37,2.33s1.75,3.45,1.75,5.69c0,.82-.11,1.7-.32,2.65s-.49,1.88-.81,2.78-.67,1.79-1.04,2.65-.7,1.62-1,2.26c-.82,1.73-1.63,3.73-2.43,6.02s-1.51,4.62-2.14,6.99-1.13,4.64-1.52,6.79-.58,3.97-.58,5.43c0,.52.04,1.07.13,1.65s.22,1.12.39,1.62.4.9.68,1.2.64.45,1.07.45c1.29,0,2.8-.33,4.53-1s3.54-1.59,5.43-2.75,3.83-2.53,5.79-4.11,3.84-3.23,5.63-4.98,3.44-3.55,4.95-5.4,2.76-3.67,3.75-5.43c.47-.78.87-1.67,1.2-2.69s.65-2.12.97-3.33.7-2.51,1.13-3.91.97-2.9,1.62-4.5c.43-.86.86-1.79,1.29-2.78s.94-1.91,1.52-2.75,1.28-1.54,2.1-2.1,1.83-.84,3.04-.84c1.29,0,2.36.27,3.2.81s1.52,1.18,2.04,1.91.87,1.48,1.07,2.23.29,1.35.29,1.78c0,.52-.14,1.32-.42,2.39s-.64,2.31-1.07,3.69-.91,2.85-1.42,4.4-.99,3.08-1.42,4.59-.79,2.92-1.07,4.24-.42,2.45-.42,3.4c0,1.9.12,3.53.36,4.88s.68,2.47,1.33,3.33,1.52,1.49,2.62,1.88,2.51.58,4.24.58,3.66-.17,5.66-.52,4.04-.85,6.11-1.52,4.14-1.49,6.21-2.46,4.08-2.06,6.02-3.27c.47-.3,1.08-.73,1.81-1.29s1.77-.84,3.11-.84c.47,0,.98.26,1.52.78s.81,1.23.81,2.14Z"/>
    <path class="cls-4" d="m1083.76,114.87c0,.78-.58,2.2-1.75,4.27-2.24,3.23-4.73,6.44-7.47,9.61s-5.66,6.18-8.77,9.03c-3.11,2.85-6.34,5.49-9.7,7.93s-6.77,4.54-10.22,6.31c-3.45,1.77-6.89,3.16-10.32,4.17s-6.78,1.52-10.06,1.52c-7.38,0-13.12-2.08-17.24-6.24s-6.18-10.45-6.18-18.86c0-3.36.24-6.67.71-9.93s1.26-6.47,2.36-9.64,2.53-6.29,4.3-9.35,3.95-6.04,6.53-8.93c.95-1.08,2.06-2.11,3.33-3.11s2.63-1.88,4.08-2.65,2.95-1.4,4.53-1.88,3.14-.71,4.69-.71c2.29,0,4.26.43,5.92,1.29s3.03,2.02,4.11,3.46,1.88,3.11,2.39,4.98.78,3.85.78,5.92c0,3.84-1.42,7.82-4.27,11.94s-6.79,8.34-11.84,12.65c-1.64,1.38-3.54,2.88-5.69,4.5s-4.57,3.44-7.25,5.47c.09,1.08.4,2.09.94,3.04s1.27,1.78,2.2,2.49,2.04,1.27,3.33,1.68,2.76.61,4.4.61c2.11,0,4.36-.27,6.73-.81s4.72-1.26,7.05-2.17c2.33-.91,4.59-1.95,6.79-3.14s4.21-2.43,6.02-3.72c3.19-2.29,6.27-4.76,9.22-7.41,2.95-2.65,5.81-5.36,8.57-8.12l3.43-3.43c2.37-2.11,4.4-3.17,6.08-3.17.86,0,1.46.29,1.78.87s.49,1.09.49,1.52Zm-50.47-11.9c0-.95-.1-1.85-.29-2.72s-.51-1.4-.94-1.62c-1.47,0-3.03.63-4.69,1.88s-3.25,3.03-4.76,5.34-2.86,5.09-4.04,8.35-2.06,6.87-2.62,10.84c2.03-1.51,4.07-3.09,6.11-4.76,2.05-1.66,3.9-3.4,5.56-5.21s3.02-3.72,4.08-5.73,1.59-4.13,1.59-6.37Z"/>
    <path class="cls-4" d="m1140.37,112.8c0,1.16-.52,2.62-1.55,4.37s-2.34,3.59-3.91,5.53-3.33,3.91-5.27,5.92-3.82,3.89-5.63,5.66c-1.08,1.04-2.67,2.47-4.79,4.3s-4.48,3.85-7.08,6.05-5.34,4.48-8.18,6.83-5.53,4.54-8.06,6.57-4.76,3.8-6.7,5.31-3.32,2.54-4.14,3.11c-2.67,1.77-5.17,3.13-7.47,4.08s-4.37,1.42-6.18,1.42c-1.51,0-2.78-.14-3.82-.42s-1.88-.65-2.52-1.1-1.12-.97-1.42-1.55-.45-1.18-.45-1.78c0-1.51.28-2.86.84-4.04s1.43-2.3,2.62-3.33,2.7-2.04,4.53-3.01,4-1.97,6.5-3.01c1.64-.65,3.12-1.27,4.43-1.88s2.46-1.26,3.43-1.97,1.71-1.52,2.23-2.43.78-2.01.78-3.3c0-.3-.2-.86-.61-1.68s-.94-1.77-1.59-2.85-1.37-2.25-2.17-3.53-1.59-2.52-2.36-3.75-1.51-2.38-2.2-3.46-1.23-1.98-1.62-2.72c-1.77-3.28-2.65-6.62-2.65-10.03,0-1.47.13-2.98.39-4.53s.69-3.13,1.29-4.72c.56-1.98,1.48-3.93,2.75-5.82s2.69-3.59,4.24-5.08,3.12-2.69,4.69-3.59,2.94-1.36,4.11-1.36c1.55,0,2.83.14,3.82.42s1.76.71,2.3,1.29.92,1.32,1.13,2.2.32,1.95.32,3.2c0,1.04-.26,2.05-.78,3.04s-1.14,1.92-1.88,2.78-1.51,1.66-2.33,2.39-1.53,1.38-2.14,1.94c-.91.82-1.77,1.59-2.59,2.3s-1.47,1.33-1.94,1.84c.04,2.72.71,5.22,2.01,7.51.65,1.12,1.46,2.5,2.43,4.14s1.96,3.31,2.98,5.01,1.97,3.33,2.88,4.88,1.62,2.78,2.14,3.69c.65-.3,1.59-.87,2.81-1.71s2.66-1.85,4.3-3.04,3.4-2.51,5.27-3.98,3.76-2.98,5.66-4.53,3.73-3.09,5.5-4.63,3.36-2.99,4.79-4.37c1.21-1.16,2.21-2.17,3.01-3.01s1.49-1.53,2.07-2.07,1.09-.95,1.52-1.23.91-.42,1.42-.42c.56,0,1.02.2,1.39.61s.66.86.87,1.36.37.96.45,1.39.13.69.13.78Z"/>
    <path class="cls-4" d="m1186.31,100.7c0,1.08-.31,1.97-.94,2.69s-1.39,1.28-2.3,1.71-1.88.74-2.91.94-1.98.33-2.85.42c-3.23.22-6.47.51-9.7.87s-6.16.71-8.77,1.04-4.76.6-6.44.84-2.59.36-2.72.36c-.3,1.16-.68,2.63-1.13,4.4s-.93,3.68-1.42,5.73-.98,4.14-1.46,6.28-.92,4.17-1.33,6.11-.73,3.7-.97,5.27-.36,2.81-.36,3.72c0,.73.08,1.65.23,2.75s.42,2.17.81,3.2.91,1.93,1.55,2.69,1.47,1.13,2.46,1.13c.69,0,1.54-.15,2.56-.45s2.14-.78,3.36-1.42,2.53-1.48,3.91-2.49,2.76-2.25,4.14-3.72c.43-.47.93-.97,1.49-1.49s1.16-.98,1.81-1.39,1.35-.75,2.1-1.04,1.54-.42,2.36-.42c1.29,0,2.18.28,2.65.84s.71,1.27.71,2.14c0,1.73-.5,3.3-1.49,4.72s-2.24,3.02-3.75,4.79c-.69.82-1.78,1.93-3.27,3.33s-3.26,2.78-5.31,4.14-4.33,2.54-6.86,3.56-5.19,1.52-7.99,1.52-5.01-.36-6.89-1.07-3.43-1.64-4.66-2.78-2.19-2.46-2.88-3.95-1.2-3.01-1.52-4.56-.52-3.08-.58-4.59-.1-2.87-.1-4.08c0-1.29.14-2.79.42-4.5s.61-3.5,1-5.4.83-3.85,1.33-5.86.94-3.93,1.33-5.76.72-3.53,1-5.08.42-2.87.42-3.95c0-.26-.03-.5-.1-.71s-.23-.4-.49-.55-.67-.26-1.23-.32-1.34-.1-2.33-.1c-1.12,0-2.32-.03-3.59-.1s-2.45-.29-3.53-.68-1.97-1-2.69-1.84-1.07-2.04-1.07-3.59c0-.99.16-1.82.49-2.49s.75-1.21,1.29-1.62,1.16-.7,1.88-.87,1.48-.28,2.3-.32l13.65-.58c.26-.47.67-1.4,1.23-2.78s1.2-3.01,1.91-4.88,1.43-3.87,2.17-5.98,1.4-4.1,2.01-5.95c.86-2.67,1.96-4.59,3.3-5.76s3.11-1.75,5.31-1.75c1.42,0,2.52.18,3.3.55s1.34.83,1.68,1.39.55,1.2.61,1.91.1,1.39.1,2.04c0,.17-.12.67-.36,1.49s-.55,1.82-.94,3.01-.82,2.49-1.29,3.91-.96,2.86-1.46,4.3-.97,2.83-1.42,4.14-.83,2.45-1.13,3.4c.52-.04,1.37-.13,2.56-.26s2.56-.27,4.11-.42,3.18-.3,4.88-.45,3.3-.3,4.79-.45,2.78-.27,3.88-.36,1.82-.13,2.17-.13c2.33,0,4.22.12,5.66.36s2.56.59,3.33,1.07,1.29,1.06,1.55,1.75.39,1.51.39,2.46Z"/>
  </g>
</svg>